# Blender 4.2.0
# www.blender.org
mtllib Barricada.mtl
o Cube
v 0.000000 0.138132 -2.593786
v 0.000000 2.138132 2.593786
v 0.000000 0.138132 2.593786
v 0.000000 2.138132 -2.593786
v 0.000000 1.138132 -2.593786
v 0.000000 1.138132 2.593786
v 0.000000 1.638132 -2.593786
v 0.000000 1.638132 2.593786
v 0.000000 0.638132 2.593786
v 0.000000 0.638132 -2.593786
v 0.500000 0.138132 2.593786
v 0.500000 0.138132 -2.593786
v 0.500000 0.638132 2.593786
v 0.500000 0.638132 -2.593786
v -0.500000 0.138132 -2.593786
v -0.500000 0.138132 2.593786
v -0.500000 0.638132 -2.593786
v -0.500000 0.638132 2.593786
v 0.250000 0.138132 -2.593786
v 0.250000 2.138132 2.593786
v 0.250000 1.138132 2.593786
v 0.250000 1.638132 2.593786
v 0.250000 0.638132 2.593786
v 0.250000 0.138132 2.593786
v 0.250000 2.138132 -2.593786
v 0.250000 1.138132 -2.593786
v 0.250000 1.638132 -2.593786
v 0.250000 0.638132 -2.593786
v -0.250000 0.138132 2.593786
v -0.250000 2.138132 -2.593786
v -0.250000 1.138132 -2.593786
v -0.250000 1.638132 -2.593786
v -0.250000 0.638132 -2.593786
v -0.250000 0.138132 -2.593786
v -0.250000 2.138132 2.593786
v -0.250000 1.138132 2.593786
v -0.250000 1.638132 2.593786
v -0.250000 0.638132 2.593786
v 0.241742 2.138288 -2.593786
v 0.241742 2.138288 2.593786
v -0.008258 2.138288 -2.593786
v 0.250000 0.624463 -2.593786
v 0.500000 0.624463 -2.593786
v -0.008258 2.138288 2.593786
v 0.500000 0.624463 2.593786
v 0.250000 0.624463 2.593786
v 0.240151 2.149270 2.593786
v -0.009849 2.149270 2.593786
v -0.009849 2.149270 -2.593786
v -0.250000 0.648524 2.593786
v -0.500000 0.648524 2.593786
v 0.240151 2.149270 -2.593786
v -0.500000 0.648524 -2.593786
v -0.250000 0.648524 -2.593786
v -0.524946 0.638132 -2.593786
v -0.524946 0.138132 -2.593786
v -0.524946 0.638132 2.593786
v -0.524946 0.138132 2.593786
v 0.486878 0.138132 -2.593786
v 0.486878 0.138132 2.593786
v 0.486878 0.638132 -2.593786
v 0.486878 0.638132 2.593786
vn -0.0000 -0.0000 1.0000
vn -0.0000 -0.0000 -1.0000
vn -0.0000 -1.0000 -0.0000
vn -0.0000 1.0000 -0.0000
vn -0.9480 -0.3183 -0.0000
vn 1.0000 -0.0000 -0.0000
vn 0.8969 -0.4423 -0.0000
vn -1.0000 -0.0000 -0.0000
vt 0.437500 0.843750
vt 0.500000 0.843750
vt 0.500000 0.875000
vt 0.437500 0.875000
vt 0.437500 0.343750
vt 0.500000 0.343750
vt 0.500000 0.375000
vt 0.437500 0.375000
vt 0.562500 0.343750
vt 0.625000 0.343750
vt 0.625000 0.375000
vt 0.562500 0.375000
vt 0.218750 0.500000
vt 0.250000 0.500000
vt 0.250000 0.750000
vt 0.218750 0.750000
vt 0.562500 0.843750
vt 0.625000 0.843750
vt 0.625000 0.875000
vt 0.562500 0.875000
vt 0.718750 0.500000
vt 0.750000 0.500000
vt 0.750000 0.750000
vt 0.718750 0.750000
vt 0.375000 0.343750
vt 0.375000 0.375000
vt 0.375000 0.843750
vt 0.375000 0.875000
vt 0.375000 0.406250
vt 0.437500 0.406250
vt 0.437500 0.437500
vt 0.375000 0.437500
vt 0.281250 0.500000
vt 0.312500 0.500000
vt 0.312500 0.750000
vt 0.281250 0.750000
vt 0.375000 0.906250
vt 0.437500 0.906250
vt 0.437500 0.937500
vt 0.375000 0.937500
vt 0.625000 0.406250
vt 0.562500 0.406250
vt 0.500000 0.406250
vt 0.375000 0.812500
vt 0.437500 0.812500
vt 0.781250 0.500000
vt 0.781250 0.750000
vt 0.625000 0.906250
vt 0.562500 0.906250
vt 0.500000 0.906250
vt 0.375000 0.312500
vt 0.437500 0.312500
vt 0.187500 0.500000
vt 0.187500 0.750000
vt 0.656250 0.500000
vt 0.687500 0.500000
vt 0.687500 0.750000
vt 0.656250 0.750000
vt 0.625000 0.500000
vt 0.625000 0.750000
vt 0.843750 0.500000
vt 0.875000 0.500000
vt 0.875000 0.750000
vt 0.843750 0.750000
vt 0.812500 0.500000
vt 0.812500 0.750000
vt 0.375000 0.500000
vt 0.437500 0.500000
vt 0.437500 0.750000
vt 0.375000 0.750000
vt 0.375000 0.000000
vt 0.437500 0.000000
vt 0.437500 0.250000
vt 0.375000 0.250000
s 0
usemtl Material
f 23/1/1 21/2/1 6/3/1 9/4/1
f 33/5/2 31/6/2 5/7/2 10/8/2
f 32/9/2 30/10/2 4/11/2 7/12/2
f 34/13/3 1/14/3 3/15/3 29/16/3
f 22/17/1 20/18/1 2/19/1 8/20/1
f 25/21/4 4/22/4 2/23/4 20/24/4
f 21/2/1 22/17/1 8/20/1 6/3/1
f 31/6/2 32/9/2 7/12/2 5/7/2
f 34/25/2 33/5/2 10/8/2 1/26/2
f 24/27/1 23/1/1 9/4/1 3/28/1
f 19/29/2 28/30/2 14/31/2 12/32/2
f 19/33/3 12/34/3 11/35/3 24/36/3
f 29/37/1 38/38/1 18/39/1 16/40/1
f 1/14/3 19/33/3 24/36/3 3/15/3
f 7/12/2 4/11/2 25/41/2 27/42/2
f 10/8/2 5/7/2 26/43/2 28/30/2
f 5/7/2 7/12/2 27/42/2 26/43/2
f 1/26/2 10/8/2 28/30/2 19/29/2
f 11/44/1 13/45/1 23/1/1 24/27/1
f 4/22/4 30/46/4 35/47/4 2/23/4
f 8/20/1 2/19/1 35/48/1 37/49/1
f 9/4/1 6/3/1 36/50/1 38/38/1
f 6/3/1 8/20/1 37/49/1 36/50/1
f 3/28/1 9/4/1 38/38/1 29/37/1
f 15/51/2 17/52/2 33/5/2 34/25/2
f 15/53/3 34/13/3 29/16/3 16/54/3
f 41/55/5 43/56/5 45/57/5 44/58/5
f 43/56/4 42/21/4 46/24/4 45/57/4
f 39/59/4 41/55/4 44/58/4 40/60/4
f 25/21/6 20/24/6 46/24/6 42/21/6
f 52/61/4 49/62/4 48/63/4 47/64/4
f 54/46/4 53/65/4 51/66/4 50/47/4
f 53/65/7 52/61/7 47/64/7 51/66/7
f 35/47/8 30/46/8 54/46/8 50/47/8
f 56/67/6 55/68/6 57/69/6 58/70/6
f 60/71/8 62/72/8 61/73/8 59/74/8
