# Blender 4.2.0
# www.blender.org
mtllib Carretera.mtl
o Plano
v -20.527464 0.000000 20.527464
v 20.527464 0.000000 20.527464
v -20.527464 0.000000 -20.527464
v 20.527464 0.000000 -20.527464
v 0.000000 0.000000 20.527464
v 0.000000 0.000000 -20.527464
v -20.527464 0.000000 0.000000
v 20.527464 0.000000 0.000000
v -0.041356 0.000000 0.054412
v 7.086133 0.000000 0.054412
v 7.086133 0.000000 -20.412746
v 0.124870 0.000000 0.108423
v -0.041356 0.000000 -20.412746
v 0.124870 0.000000 20.419041
v 7.129718 0.000000 20.419041
v 7.129718 0.000000 0.108423
v -0.006264 0.000000 -0.065377
v -0.006264 0.000000 -20.462088
v -7.331234 0.000000 -20.462088
v 0.193127 0.000000 0.000000
v -7.331234 0.000000 -0.065377
v -7.363731 0.000000 0.000000
v -7.363731 0.000000 20.527464
v 0.193127 0.000000 20.527464
v 0.000000 0.000000 0.000000
v 7.086133 0.000000 -10.179168
v 0.000000 0.000000 -10.263732
v -7.331234 0.000000 -10.263733
v 20.527464 0.000000 -10.263732
v -0.041356 0.000000 -10.179168
v -0.006264 0.000000 -10.263732
v -20.527464 0.000000 -10.263732
v -7.363731 0.000000 10.263732
v 7.129718 0.000000 10.263732
v 0.000000 0.000000 10.263732
v 20.527464 0.000000 10.263732
v 0.124870 0.000000 10.263732
v -20.527464 0.000000 10.263732
v 0.193127 0.000000 10.263732
v -7.331234 0.000000 -5.164555
v -20.527464 0.000000 -5.131866
v 7.086133 0.000000 -5.062378
v 0.000000 0.000000 -5.131866
v 20.527464 0.000000 -5.131866
v -0.041356 0.000000 -5.062378
v -0.006264 0.000000 -5.164555
v 7.129718 0.000000 5.186078
v 0.000000 0.000000 5.131866
v 20.527464 0.000000 5.131866
v 0.124870 0.000000 5.186078
v 0.193127 0.000000 5.131866
v -7.363731 0.000000 5.131866
v -20.527464 0.000000 5.131866
v -7.331234 0.000000 -2.614966
v -20.527464 0.000000 -2.565933
v 7.086133 0.000000 -2.503983
v 0.000000 0.000000 -2.565933
v 20.527464 0.000000 -2.565933
v -0.041356 0.000000 -2.503983
v -0.006264 0.000000 -2.614966
v 7.129718 0.000000 2.647250
v 0.000000 0.000000 2.565933
v 20.527464 0.000000 2.565933
v 0.124870 0.000000 2.647250
v 0.193127 0.000000 2.565933
v -7.363731 0.000000 2.565933
v -20.527464 0.000000 2.565933
v 13.828590 0.000000 20.473251
v 0.062435 0.000000 20.473251
v 13.828590 0.000000 0.054212
v 0.062435 0.000000 0.054212
v 0.062435 0.000000 10.263732
v 13.828590 0.000000 10.263732
v 13.828590 0.000000 5.158972
v 0.062435 0.000000 5.158972
v 13.828590 0.000000 2.606592
v 0.062435 0.000000 2.606592
v 13.806799 0.000000 -20.470104
v 13.806799 0.000000 0.027206
v -0.020678 0.000000 -20.470104
v -0.020678 0.000000 0.027206
v -0.020678 0.000000 -10.221450
v 13.806799 0.000000 -10.221450
v -0.020678 0.000000 -5.097122
v 13.806799 0.000000 -5.097122
v -0.020678 0.000000 -2.534958
v 13.806799 0.000000 -2.534958
v -13.945598 0.000000 20.527464
v -13.945597 0.000000 0.000000
v 0.096564 0.000000 20.527464
v 0.096564 0.000000 0.000000
v 0.096564 0.000000 10.263732
v -13.945597 0.000000 10.263732
v 0.096564 0.000000 5.131866
v -13.945597 0.000000 5.131866
v 0.096564 0.000000 2.565933
v -13.945597 0.000000 2.565933
v -13.929349 0.000000 -20.494776
v -0.003132 0.000000 -20.494776
v -0.003132 0.000000 -0.032689
v -13.929349 0.000000 -0.032689
v -13.929349 0.000000 -10.263733
v -0.003132 0.000000 -10.263732
v -13.929349 0.000000 -5.148211
v -0.003132 0.000000 -5.148211
v -13.929349 0.000000 -2.590450
v -0.003132 0.000000 -2.590449
v -10.630291 0.000000 -20.478432
v -10.630291 0.000000 -0.049033
v -0.004698 0.000000 -20.478432
v -0.004698 0.000000 -0.049033
v -10.630291 0.000000 -10.263733
v -0.004698 0.000000 -10.263732
v -10.630291 0.000000 -5.156383
v -0.004698 0.000000 -5.156383
v -10.630291 0.000000 -2.602708
v -0.004698 0.000000 -2.602708
v -10.654664 0.000000 20.527464
v 0.144845 0.000000 20.527464
v 0.144845 0.000000 0.000000
v -10.654664 0.000000 0.000000
v 0.144845 0.000000 10.263732
v -10.654664 0.000000 10.263732
v 0.144845 0.000000 5.131866
v -10.654664 0.000000 5.131866
v 0.144845 0.000000 2.565933
v -10.654664 0.000000 2.565933
v 10.479155 0.000000 20.446146
v 10.479155 0.000000 0.081317
v 0.093653 0.000000 20.446146
v 0.093653 0.000000 0.081317
v 0.093653 0.000000 10.263732
v 10.479155 0.000000 10.263732
v 10.479155 0.000000 5.172524
v 0.093653 0.000000 5.172524
v 10.479155 0.000000 2.626921
v 0.093653 0.000000 2.626921
v 10.446466 0.000000 -20.441425
v -0.031017 0.000000 -20.441425
v -0.031017 0.000000 0.040809
v 10.446466 0.000000 0.040809
v -0.031017 0.000000 -10.200309
v 10.446466 0.000000 -10.200309
v -0.031017 0.000000 -5.079750
v 10.446466 0.000000 -5.079750
v -0.031017 0.000000 -2.519470
v 10.446466 0.000000 -2.519470
v 0.078044 0.000000 20.459698
v 0.078044 0.000000 0.067765
v 0.078044 0.000000 10.263732
v 12.153872 0.000000 10.263732
v 12.153872 0.000000 5.165748
v 0.078044 0.000000 5.165748
v 12.153872 0.000000 2.616756
v 0.078044 0.000000 2.616756
v 12.153872 0.000000 20.459698
v 12.153872 0.000000 0.067765
v 12.126633 0.000000 0.034007
v -0.025848 0.000000 -10.210879
v 12.126633 0.000000 -10.210879
v -0.025848 0.000000 -5.088436
v 12.126633 0.000000 -5.088436
v -0.025848 0.000000 -2.527214
v 12.126633 0.000000 -2.527214
v 12.126633 0.000000 -20.455765
v -0.025848 0.000000 -20.455765
v -0.025848 0.000000 0.034007
vn -0.0000 1.0000 -0.0000
vn -0.0000 -1.0000 -0.0000
vt 0.528177 0.750000
vt 0.971822 0.750000
vt 0.971822 0.971822
vt 0.528177 0.971823
vt 0.005341 0.750000
vt 0.494659 0.750000
vt 0.494659 0.994659
vt 0.005341 0.994659
vt 0.000000 0.437500
vt 0.500000 0.437500
vt 0.500000 0.500000
vt 0.000000 0.500000
vt 0.510328 0.429754
vt 0.989672 0.429754
vt 0.989672 0.489672
vt 0.510328 0.489672
vt 0.985911 0.573067
vt 0.985911 0.514089
vt 1.000000 0.500000
vt 1.000000 0.562500
vt 0.514089 0.985911
vt 0.985911 0.985911
vt 1.000000 1.000000
vt 0.500000 1.000000
vt 0.514089 0.750000
vt 0.500000 0.750000
vt 0.514089 0.514089
vt 0.994836 0.005164
vt 0.505164 0.005164
vt 0.500000 0.000000
vt 1.000000 0.000000
vt 0.994836 0.250000
vt 1.000000 0.250000
vt 0.505164 0.433627
vt 0.505164 0.494836
vt 0.500000 0.437500
vt 0.994836 0.494836
vt 0.002671 0.997329
vt 0.497329 0.997329
vt 0.000000 1.000000
vt 0.497329 0.564503
vt 0.497329 0.502671
vt 0.500000 0.562500
vt 0.002671 0.750000
vt 0.000000 0.750000
vt 0.002671 0.502671
vt 0.000000 0.000000
vt 0.500000 0.250000
vt 0.160319 0.500000
vt 0.506389 0.500000
vt 0.002671 0.626335
vt 0.000000 0.625000
vt 0.497329 0.750000
vt 0.514089 0.632044
vt 0.500000 0.625000
vt 0.985911 0.750000
vt 1.000000 0.750000
vt 0.005341 0.627671
vt 0.494659 0.627671
vt 0.528177 0.639089
vt 0.971823 0.639089
vt 0.500000 0.375000
vt 0.000000 0.250000
vt 0.505164 0.250000
vt 0.994836 0.372418
vt 1.000000 0.375000
vt 0.510328 0.010328
vt 0.989672 0.010328
vt 0.989672 0.250000
vt 0.510328 0.250000
vt 0.528177 0.583633
vt 0.971823 0.583633
vt 0.005341 0.566506
vt 0.494659 0.566506
vt 0.514089 0.573067
vt 0.002671 0.564503
vt 0.000000 0.562500
vt 0.497329 0.626335
vt 0.985911 0.632044
vt 1.000000 0.625000
vt 0.994836 0.433627
vt 1.000000 0.437500
vt 0.000000 0.375000
vt 0.505164 0.372418
vt 0.989672 0.369836
vt 0.510328 0.369836
vt 0.005341 0.505341
vt 0.494659 0.505341
vt 0.528178 0.528178
vt 0.971822 0.528177
vt 0.506455 0.371772
vt 0.506455 0.432659
vt 0.993545 0.493545
vt 0.993545 0.432659
vt 0.506455 0.250000
vt 0.993545 0.371773
vt 0.993545 0.250000
vt 0.506455 0.006455
vt 0.506455 0.493545
vt 0.993545 0.006455
vt 0.982389 0.633806
vt 0.982389 0.575708
vt 0.517611 0.517611
vt 0.517611 0.575708
vt 0.982389 0.750000
vt 0.517611 0.633805
vt 0.982389 0.982389
vt 0.517611 0.750000
vt 0.982389 0.517611
vt 0.517611 0.982389
vt 0.499996 0.500004
vt 0.500000 0.500008
vt 0.495994 0.627003
vt 0.495994 0.565504
vt 0.004006 0.504006
vt 0.004006 0.565504
vt 0.495994 0.750000
vt 0.004006 0.627003
vt 0.495994 0.995994
vt 0.004006 0.750000
vt 0.495994 0.504006
vt 0.004006 0.995994
vt -0.217745 0.000000
vt 0.496805 0.000000
vt 0.496805 0.500000
vt -0.217745 0.500000
vt 0.507746 0.007746
vt 0.992254 0.007746
vt 0.992254 0.250000
vt 0.507746 0.492254
vt 0.507746 0.431691
vt 0.992254 0.492254
vt 0.507746 0.250000
vt 0.992254 0.371127
vt 0.992254 0.431691
vt 0.507746 0.371127
vt 0.978867 0.521133
vt 0.978867 0.578350
vt 0.978867 0.978867
vt 0.521133 0.978867
vt 0.521133 0.750000
vt 0.521133 0.521133
vt 0.521133 0.635567
vt 0.978867 0.750000
vt 0.521133 0.578350
vt 0.978867 0.635567
s 0
usemtl Calles
f 30/1/1 26/2/1 11/3/1 13/4/1
f 28/5/1 31/6/1 18/7/1 19/8/1
f 66/9/1 65/10/1 20/11/1 22/12/1
f 64/13/1 61/14/1 16/15/1 12/16/1
f 87/17/1 79/18/1 8/19/1 58/20/1
f 80/21/1 78/22/1 4/23/1 6/24/1
f 82/25/2 80/21/2 6/24/2 27/26/2
f 79/18/2 81/27/2 25/11/2 8/19/2
f 68/28/1 69/29/1 5/30/1 2/31/1
f 77/34/1 71/35/1 25/11/1 62/36/1
f 71/35/1 70/37/1 8/19/1 25/11/1
f 98/38/1 99/39/1 6/24/1 3/40/1
f 107/41/1 100/42/1 25/11/1 57/43/1
f 100/42/1 101/46/1 7/12/1 25/11/1
f 90/47/1 88/47/1 1/47/1 5/47/1
f 92/48/2 90/30/2 5/30/2 35/48/2
f 89/49/1 91/50/1 25/11/1 7/12/1
f 99/39/1 103/53/1 27/26/1 6/24/1
f 84/54/2 82/25/2 27/26/2 43/55/2
f 40/58/1 46/59/1 31/6/1 28/5/1
f 45/60/1 42/61/1 26/2/1 30/1/1
f 94/62/2 92/48/2 35/48/2 48/62/2
f 69/29/1 72/64/1 35/48/1 5/30/1
f 14/67/1 15/68/1 34/69/1 37/70/1
f 23/47/1 24/30/1 39/48/1 33/63/1
f 59/71/1 56/72/1 42/61/1 45/60/1
f 54/73/1 60/74/1 46/59/1 40/58/1
f 86/75/2 84/54/2 43/55/2 57/43/2
f 103/53/1 105/78/1 43/55/1 27/26/1
f 96/10/2 94/62/2 48/62/2 62/36/2
f 72/64/1 75/84/1 48/62/1 35/48/1
f 37/70/1 34/69/1 47/85/1 50/86/1
f 33/63/1 39/48/1 51/62/1 52/83/1
f 81/27/2 86/75/2 57/43/2 25/11/2
f 21/87/1 17/88/1 60/74/1 54/73/1
f 9/89/1 10/90/1 56/72/1 59/71/1
f 105/78/1 107/41/1 57/43/1 43/55/1
f 91/11/2 96/10/2 62/36/2 25/11/2
f 70/37/1 76/81/1 63/82/1 8/19/1
f 75/84/1 77/34/1 62/36/1 48/62/1
f 50/86/1 47/85/1 61/14/1 64/13/1
f 52/83/1 51/62/1 65/10/1 66/9/1
f 153/91/1 155/92/1 77/34/1 75/84/1
f 157/93/1 154/94/1 76/81/1 70/37/1
f 150/95/1 153/91/1 75/84/1 72/64/1
f 148/98/1 150/95/1 72/64/1 69/29/1
f 149/99/1 157/93/1 70/37/1 71/35/1
f 155/92/1 149/99/1 71/35/1 77/34/1
f 156/100/1 148/98/1 69/29/1 68/28/1
f 167/103/2 163/104/2 86/75/2 81/27/2
f 163/104/2 161/106/2 84/54/2 86/75/2
f 161/106/2 159/108/2 82/25/2 84/54/2
f 158/109/2 167/103/2 81/27/2 79/18/2
f 159/108/2 166/110/2 80/21/2 82/25/2
f 166/110/1 165/107/1 78/22/1 80/21/1
f 164/102/1 158/109/1 79/18/1 87/17/1
f 125/83/1 127/9/1 97/9/1 95/83/1
f 120/11/2 126/10/2 96/10/2 91/11/2
f 123/63/1 125/83/1 95/83/1 93/63/1
f 126/10/2 124/62/2 94/62/2 96/10/2
f 118/47/1 123/63/1 93/63/1 88/47/1
f 124/62/2 122/48/2 92/48/2 94/62/2
f 121/111/1 120/11/1 91/11/1 89/112/1
f 122/48/2 119/30/2 90/30/2 92/48/2
f 119/47/1 118/47/1 88/47/1 90/47/1
f 127/9/1 121/12/1 89/12/1 97/9/1
f 115/113/1 117/114/1 107/41/1 105/78/1
f 109/115/1 116/116/1 106/76/1 101/46/1
f 113/117/1 115/113/1 105/78/1 103/53/1
f 116/116/1 114/118/1 104/51/1 106/76/1
f 110/119/1 113/117/1 103/53/1 99/39/1
f 114/118/1 112/120/1 102/44/1 104/51/1
f 111/121/1 109/115/1 101/46/1 100/42/1
f 112/120/1 108/122/1 98/38/1 102/44/1
f 117/114/1 111/121/1 100/42/1 107/41/1
f 108/122/1 110/119/1 99/39/1 98/38/1
f 19/8/1 18/7/1 110/119/1 108/122/1
f 60/74/1 17/88/1 111/121/1 117/114/1
f 17/88/1 21/87/1 109/115/1 111/121/1
f 18/7/1 31/6/1 113/117/1 110/119/1
f 31/6/1 46/59/1 115/113/1 113/117/1
f 46/59/1 60/74/1 117/114/1 115/113/1
f 24/30/2 23/47/2 118/123/2 119/124/2
f 39/48/2 24/30/2 119/30/2 122/48/2
f 22/12/1 20/11/1 120/125/1 121/126/1
f 51/62/2 39/48/2 122/48/2 124/62/2
f 65/10/2 51/62/2 124/62/2 126/10/2
f 20/11/2 65/10/2 126/10/2 120/11/2
f 15/68/1 14/67/1 130/127/1 128/128/1
f 64/13/1 12/16/1 131/130/1 137/131/1
f 12/16/1 16/15/1 129/132/1 131/130/1
f 14/67/1 37/70/1 132/133/1 130/127/1
f 37/70/1 50/86/1 135/136/1 132/133/1
f 16/15/1 61/14/1 136/135/1 129/132/1
f 50/86/1 64/13/1 137/131/1 135/136/1
f 56/72/1 10/90/1 141/137/1 147/138/1
f 13/4/1 11/3/1 138/139/1 139/140/1
f 30/1/2 13/4/2 139/140/2 142/141/2
f 10/90/2 9/89/2 140/142/2 141/137/2
f 45/60/2 30/1/2 142/141/2 144/143/2
f 59/71/2 45/60/2 144/143/2 146/145/2
f 9/89/2 59/71/2 146/145/2 140/142/2
f 128/128/1 130/127/1 148/98/1 156/100/1
f 133/129/1 128/128/1 156/100/1 151/97/1
f 137/131/1 131/130/1 149/99/1 155/92/1
f 131/130/1 129/132/1 157/93/1 149/99/1
f 130/127/1 132/133/1 150/95/1 148/98/1
f 134/134/1 133/129/1 151/97/1 152/96/1
f 136/135/1 134/134/1 152/96/1 154/94/1
f 132/133/1 135/136/1 153/91/1 150/95/1
f 129/132/1 136/135/1 154/94/1 157/93/1
f 135/136/1 137/131/1 155/92/1 153/91/1
f 147/138/1 141/137/1 158/109/1 164/102/1
f 139/140/1 138/139/1 165/107/1 166/110/1
f 142/141/2 139/140/2 166/110/2 159/108/2
f 141/137/2 140/142/2 167/103/2 158/109/2
f 144/143/2 142/141/2 159/108/2 161/106/2
f 138/139/1 143/144/1 160/105/1 165/107/1
f 146/145/2 144/143/2 161/106/2 163/104/2
f 143/144/1 145/146/1 162/101/1 160/105/1
f 140/142/2 146/145/2 163/104/2 167/103/2
f 145/146/1 147/138/1 164/102/1 162/101/1
usemtl Material.001
f 73/32/1 68/28/1 2/31/1 36/33/1
f 102/44/1 98/38/1 3/40/1 32/45/1
f 97/9/1 89/12/1 7/12/1 67/9/1
f 104/51/1 102/44/1 32/45/1 41/52/1
f 78/22/1 83/56/1 29/57/1 4/23/1
f 88/47/1 93/63/1 38/63/1 1/47/1
f 74/65/1 73/32/1 36/33/1 49/66/1
f 106/76/1 104/51/1 41/52/1 55/77/1
f 83/56/1 85/79/1 44/80/1 29/57/1
f 76/81/1 74/65/1 49/66/1 63/82/1
f 93/63/1 95/83/1 53/83/1 38/63/1
f 101/46/1 106/76/1 55/77/1 7/12/1
f 85/79/1 87/17/1 58/20/1 44/80/1
f 95/83/1 97/9/1 67/9/1 53/83/1
f 152/96/1 151/97/1 73/32/1 74/65/1
f 160/105/1 162/101/1 85/79/1 83/56/1
f 165/107/1 160/105/1 83/56/1 78/22/1
usemtl Pasto
f 154/94/1 152/96/1 74/65/1 76/81/1
f 151/97/1 156/100/1 68/28/1 73/32/1
f 162/101/1 164/102/1 87/17/1 85/79/1
f 28/5/1 19/8/1 108/122/1 112/120/1
f 40/58/1 28/5/1 112/120/1 114/118/1
f 54/73/1 40/58/1 114/118/1 116/116/1
f 21/87/1 54/73/1 116/116/1 109/115/1
f 66/9/1 22/12/1 121/12/1 127/9/1
f 23/47/1 33/63/1 123/63/1 118/47/1
f 33/63/1 52/83/1 125/83/1 123/63/1
f 52/83/1 66/9/1 127/9/1 125/83/1
f 34/69/1 15/68/1 128/128/1 133/129/1
f 47/85/1 34/69/1 133/129/1 134/134/1
f 61/14/1 47/85/1 134/134/1 136/135/1
f 11/3/1 26/2/1 143/144/1 138/139/1
f 26/2/1 42/61/1 145/146/1 143/144/1
f 42/61/1 56/72/1 147/138/1 145/146/1
